<?xml version="1.0" encoding="UTF-8" standalone="no"?>
<!DOCTYPE svg PUBLIC "-//W3C//DTD SVG 1.1//EN" "http://www.w3.org/Graphics/SVG/1.1/DTD/svg11.dtd">
<svg version="1.1" xmlns="http://www.w3.org/2000/svg" xmlns:xlink="http://www.w3.org/1999/xlink" preserveAspectRatio="xMidYMid meet" viewBox="0 0 667.4 219" width="667.4" height="219"><defs><path fill="#263246" class="logo" d="M289.82 38.2C327.24 38.2 367.39 32.76 366.65 85.45C366.65 90.3 366.65 129.16 366.65 134.02C364.55 187.93 329.19 180.85 289.82 180.37C289.82 151.94 289.82 66.64 289.82 38.2ZM259.57 10.18C259.57 129.39 259.57 195.62 259.57 208.86C319.55 208.86 391.24 223.04 396.66 133.36C396.66 128.11 396.66 86.07 396.66 80.82C391.62 -3.7 321.36 10.34 259.57 10.18" id="bB1tmDFS"></path><path fill="#263246" d="M480.12 96.8L507.7 203.24L507.98 204.27L528.34 204.27L564.33 51.56L540.26 51.56L517.08 157.75L489.15 51.45L471.39 51.45L442.57 157.97L420.33 51.39L395.11 51.39L431.99 204.2L451.63 204.2L480.12 96.8Z" id="aOAvseWe"></path><path fill="#263246" d="M573.8 166.61C568.68 172.71 563.56 178.82 558.45 184.93C589.98 210.15 659.08 220.87 667.4 168.92C667.4 167.29 667.4 154.22 667.4 152.58C663.1 127.07 643.22 115.77 612.44 114.39C567.11 103.51 592.7 50.87 650.84 84.81C655.33 78.29 659.82 71.78 664.32 65.26C653.25 57.08 640.79 52.26 626.78 51.14C619.32 51.17 611.84 51.21 604.37 51.25C575.75 54.29 568.51 72.41 565.85 93.75C570.34 163.64 646.48 121.54 645.49 161.67C645.12 177.01 611.69 196.32 573.8 166.61" id="a6IE16F4jf"></path><path fill="#263246" d="M6.17 78.94C21.2 35.91 50.31 14.14 87.2 3.24C63.34 28.24 37.6 52.5 11.55 77.4C9.76 78.25 7.97 78.68 6.17 78.94" id="c9GgrzIID"></path><path fill="#263246" d="M0.38 109.02C2.13 110.85 4 112.45 6.01 113.76C44.17 75.88 82.32 38.01 120.48 0.13C133.74 -0.6 148.58 1.63 167.3 11.15C167.16 15.34 165.91 19.6 163.2 23.96C115.93 71.19 68.66 118.41 21.39 165.65C19.14 167.28 16.72 168.71 13.96 169.75C4.31 149.8 -1.59 129.64 0.38 109.02" id="akbRnKI4"></path><path fill="#263246" d="M28.05 189.37C37.08 202.72 49.88 212.14 65.4 219C117.15 167.63 169.06 115.94 220.82 64.56C209.05 41.04 199.84 31.77 190.81 27.38C136.79 81.12 82.07 135.64 28.05 189.37" id="f4clmOiSRK"></path><path fill="#263246" d="M228.28 86.41C213.06 101.87 198.39 115.85 185.49 129.71C172.07 153.93 200.12 179.88 224.7 156.35C232.5 134.84 235.52 112.02 228.28 86.41" id="f8V34iKziw"></path></defs><g><g><g><use xlink:href="#bB1tmDFS" opacity="1" fill="#000000" fill-opacity="1"></use><g><use xlink:href="#bB1tmDFS" opacity="1" fill-opacity="1" stroke="#000000" stroke-width="1" stroke-opacity="0"></use></g></g><g><use xlink:href="#aOAvseWe" opacity="1" fill="#000000" fill-opacity="1"></use><g><use xlink:href="#aOAvseWe" opacity="1" fill-opacity="1" stroke="#000000" stroke-width="1" stroke-opacity="0"></use></g></g><g><use xlink:href="#a6IE16F4jf" opacity="1" fill="#000000" fill-opacity="1"></use><g><use xlink:href="#a6IE16F4jf" opacity="1" fill-opacity="1" stroke="#000000" stroke-width="1" stroke-opacity="0"></use></g></g><g><use xlink:href="#c9GgrzIID" opacity="1" fill="#000000" fill-opacity="1"></use><g><use xlink:href="#c9GgrzIID" opacity="1" fill-opacity="1" stroke="#000000" stroke-width="1" stroke-opacity="0"></use></g></g><g><use xlink:href="#akbRnKI4" opacity="1" fill="#000000" fill-opacity="1"></use><g><use xlink:href="#akbRnKI4" opacity="1" fill-opacity="1" stroke="#000000" stroke-width="1" stroke-opacity="0"></use></g></g><g><use xlink:href="#f4clmOiSRK" opacity="1" fill="#000000" fill-opacity="1"></use><g><use xlink:href="#f4clmOiSRK" opacity="1" fill-opacity="1" stroke="#000000" stroke-width="1" stroke-opacity="0"></use></g></g><g><use xlink:href="#f8V34iKziw" opacity="1" fill="#000000" fill-opacity="1"></use><g><use xlink:href="#f8V34iKziw" opacity="1" fill-opacity="1" stroke="#000000" stroke-width="1" stroke-opacity="0"></use></g></g></g></g></svg>