<svg width="233" height="219" viewBox="0 0 233 219" fill="none" xmlns="http://www.w3.org/2000/svg">
<path d="M6.16835 78.9379C21.1983 35.9079 50.3083 14.1379 87.1983 3.23785C63.3383 28.2379 37.5983 52.4979 11.5484 77.3979C9.75835 78.2479 7.96835 78.6779 6.16835 78.9379Z" fill="white"/>
<path d="M6.16835 78.9379C21.1983 35.9079 50.3083 14.1379 87.1983 3.23785C63.3383 28.2379 37.5983 52.4979 11.5484 77.3979C9.75835 78.2479 7.96835 78.6779 6.16835 78.9379Z" fill="white"/>
<path d="M0.378347 109.018C2.12835 110.848 3.99835 112.448 6.00835 113.758C44.1683 75.8778 82.3183 38.0078 120.478 0.127841C133.738 -0.602159 148.578 1.62784 167.298 11.1478C167.158 15.3378 165.908 19.5978 163.198 23.9578C115.928 71.1878 68.6583 118.408 21.3883 165.648C19.1383 167.278 16.7183 168.708 13.9583 169.748C4.30835 149.798 -1.59165 129.638 0.378347 109.018Z" fill="white"/>
<path d="M0.378347 109.018C2.12835 110.848 3.99835 112.448 6.00835 113.758C44.1683 75.8778 82.3183 38.0078 120.478 0.127841C133.738 -0.602159 148.578 1.62784 167.298 11.1478C167.158 15.3378 165.908 19.5978 163.198 23.9578C115.928 71.1878 68.6583 118.408 21.3883 165.648C19.1383 167.278 16.7183 168.708 13.9583 169.748C4.30835 149.798 -1.59165 129.638 0.378347 109.018Z" fill="white"/>
<path d="M28.0483 189.368C37.0783 202.718 49.8783 212.138 65.3983 218.998C117.148 167.628 169.058 115.938 220.818 64.5578C209.048 41.0378 199.838 31.7678 190.808 27.3778C136.788 81.1178 82.0683 135.638 28.0483 189.368Z" fill="white"/>
<path d="M28.0483 189.368C37.0783 202.718 49.8783 212.138 65.3983 218.998C117.148 167.628 169.058 115.938 220.818 64.5578C209.048 41.0378 199.838 31.7678 190.808 27.3778C136.788 81.1178 82.0683 135.638 28.0483 189.368Z" fill="white"/>
<path d="M228.278 86.4078C213.058 101.868 198.388 115.848 185.488 129.708C172.068 153.928 200.118 179.878 224.698 156.348C232.498 134.838 235.518 112.018 228.278 86.4078Z" fill="white"/>
<path d="M228.278 86.4078C213.058 101.868 198.388 115.848 185.488 129.708C172.068 153.928 200.118 179.878 224.698 156.348C232.498 134.838 235.518 112.018 228.278 86.4078Z" fill="white"/>
</svg>
